<mxfile host="app.diagrams.net" modified="2023-11-15T16:17:41.042Z" agent="Mozilla/5.0 (Windows NT 10.0; Win64; x64) AppleWebKit/537.36 (KHTML, like Gecko) Chrome/119.0.0.0 Safari/537.36 Edg/119.0.0.0" version="22.1.1" etag="fNnNXNS1OPXJgXiLdNQ4" type="github">
  <diagram name="Page-1" id="hdazCD79rbQ4bQ6dnX5V">
    <mxGraphModel>
      <root>
        <mxCell id="0" />
        <mxCell id="1" parent="0" />
      </root>
    </mxGraphModel>
  </diagram>
</mxfile>
